<svg width="91" height="45" viewBox="0 0 91 45" fill="none" xmlns="http://www.w3.org/2000/svg">
<path d="M0.96 22.38C0.96 20.3 1.39 18.45 2.25 16.83C3.13 15.19 4.37 13.92 5.97 13.02C7.57 12.1 9.41 11.64 11.49 11.64C14.13 11.64 16.35 12.35 18.15 13.77C19.95 15.17 21.11 17.08 21.63 19.5H15.3C14.92 18.7 14.39 18.09 13.71 17.67C13.05 17.25 12.28 17.04 11.4 17.04C10.04 17.04 8.95 17.53 8.13 18.51C7.33 19.47 6.93 20.76 6.93 22.38C6.93 24.02 7.33 25.33 8.13 26.31C8.95 27.27 10.04 27.75 11.4 27.75C12.28 27.75 13.05 27.54 13.71 27.12C14.39 26.7 14.92 26.09 15.3 25.29H21.63C21.11 27.71 19.95 29.63 18.15 31.05C16.35 32.45 14.13 33.15 11.49 33.15C9.41 33.15 7.57 32.7 5.97 31.8C4.37 30.88 3.13 29.61 2.25 27.99C1.39 26.35 0.96 24.48 0.96 22.38ZM28.7944 19.14C29.4544 18.18 30.2544 17.42 31.1944 16.86C32.1344 16.3 33.1444 16.02 34.2244 16.02V22.29H32.5744C31.2944 22.29 30.3444 22.54 29.7244 23.04C29.1044 23.54 28.7944 24.41 28.7944 25.65V33H22.9144V16.17H28.7944V19.14ZM33.8723 24.57C33.8723 22.83 34.1823 21.31 34.8023 20.01C35.4423 18.71 36.3023 17.71 37.3823 17.01C38.4823 16.31 39.7023 15.96 41.0423 15.96C42.2023 15.96 43.2023 16.19 44.0423 16.65C44.8823 17.11 45.5323 17.73 45.9923 18.51V16.17H51.8723V33H45.9923V30.66C45.5323 31.44 44.8723 32.06 44.0123 32.52C43.1723 32.98 42.1823 33.21 41.0423 33.21C39.7023 33.21 38.4823 32.86 37.3823 32.16C36.3023 31.46 35.4423 30.46 34.8023 29.16C34.1823 27.84 33.8723 26.31 33.8723 24.57ZM45.9923 24.57C45.9923 23.49 45.6923 22.64 45.0923 22.02C44.5123 21.4 43.7923 21.09 42.9323 21.09C42.0523 21.09 41.3223 21.4 40.7423 22.02C40.1623 22.62 39.8723 23.47 39.8723 24.57C39.8723 25.65 40.1623 26.51 40.7423 27.15C41.3223 27.77 42.0523 28.08 42.9323 28.08C43.7923 28.08 44.5123 27.77 45.0923 27.15C45.6923 26.53 45.9923 25.67 45.9923 24.57ZM63.653 27.99V33H61.103C56.803 33 54.653 30.87 54.653 26.61V21.06H52.583V16.17H54.653V12.09H60.563V16.17H63.623V21.06H60.563V26.7C60.563 27.16 60.663 27.49 60.863 27.69C61.083 27.89 61.443 27.99 61.943 27.99H63.653ZM67.8199 14.61C66.7799 14.61 65.9399 14.33 65.2999 13.77C64.6799 13.19 64.3699 12.47 64.3699 11.61C64.3699 10.73 64.6799 10 65.2999 9.42C65.9399 8.84 66.7799 8.55 67.8199 8.55C68.8399 8.55 69.6599 8.84 70.2799 9.42C70.9199 10 71.2399 10.73 71.2399 11.61C71.2399 12.47 70.9199 13.19 70.2799 13.77C69.6599 14.33 68.8399 14.61 67.8199 14.61ZM70.7299 16.17V33H64.8499V16.17H70.7299ZM80.6484 27.45L83.7984 16.17H90.0684L84.2784 33H76.9584L71.1684 16.17H77.4384L80.6484 27.45Z" fill="#004643"/>
</svg>
