<svg width="86" height="45" viewBox="0 0 86 45" fill="none" xmlns="http://www.w3.org/2000/svg">
<path d="M0.72 24.57C0.72 22.83 1.08 21.31 1.8 20.01C2.52 18.71 3.52 17.71 4.8 17.01C6.1 16.31 7.58 15.96 9.24 15.96C11.38 15.96 13.18 16.55 14.64 17.73C16.1 18.89 17.04 20.52 17.46 22.62H11.22C10.86 21.52 10.16 20.97 9.12 20.97C8.38 20.97 7.79 21.28 7.35 21.9C6.93 22.5 6.72 23.39 6.72 24.57C6.72 25.75 6.93 26.65 7.35 27.27C7.79 27.89 8.38 28.2 9.12 28.2C10.18 28.2 10.88 27.65 11.22 26.55H17.46C17.04 28.63 16.1 30.26 14.64 31.44C13.18 32.62 11.38 33.21 9.24 33.21C7.58 33.21 6.1 32.86 4.8 32.16C3.52 31.46 2.52 30.46 1.8 29.16C1.08 27.86 0.72 26.33 0.72 24.57ZM24.2827 19.14C24.9427 18.18 25.7427 17.42 26.6827 16.86C27.6227 16.3 28.6327 16.02 29.7127 16.02V22.29H28.0627C26.7827 22.29 25.8327 22.54 25.2127 23.04C24.5927 23.54 24.2827 24.41 24.2827 25.65V33H18.4027V16.17H24.2827V19.14ZM29.3606 24.57C29.3606 22.83 29.6706 21.31 30.2906 20.01C30.9306 18.71 31.7906 17.71 32.8706 17.01C33.9706 16.31 35.1906 15.96 36.5306 15.96C37.6906 15.96 38.6906 16.19 39.5306 16.65C40.3706 17.11 41.0206 17.73 41.4806 18.51V16.17H47.3606V33H41.4806V30.66C41.0206 31.44 40.3606 32.06 39.5006 32.52C38.6606 32.98 37.6706 33.21 36.5306 33.21C35.1906 33.21 33.9706 32.86 32.8706 32.16C31.7906 31.46 30.9306 30.46 30.2906 29.16C29.6706 27.84 29.3606 26.31 29.3606 24.57ZM41.4806 24.57C41.4806 23.49 41.1806 22.64 40.5806 22.02C40.0006 21.4 39.2806 21.09 38.4206 21.09C37.5406 21.09 36.8106 21.4 36.2306 22.02C35.6506 22.62 35.3606 23.47 35.3606 24.57C35.3606 25.65 35.6506 26.51 36.2306 27.15C36.8106 27.77 37.5406 28.08 38.4206 28.08C39.2806 28.08 40.0006 27.77 40.5806 27.15C41.1806 26.53 41.4806 25.67 41.4806 24.57ZM59.1413 27.99V33H56.5913C52.2913 33 50.1413 30.87 50.1413 26.61V21.06H48.0713V16.17H50.1413V12.09H56.0513V16.17H59.1113V21.06H56.0513V26.7C56.0513 27.16 56.1513 27.49 56.3512 27.69C56.5713 27.89 56.9313 27.99 57.4313 27.99H59.1413ZM63.3082 14.61C62.2682 14.61 61.4282 14.33 60.7882 13.77C60.1682 13.19 59.8582 12.47 59.8582 11.61C59.8582 10.73 60.1682 10 60.7882 9.42C61.4282 8.84 62.2682 8.55 63.3082 8.55C64.3282 8.55 65.1482 8.84 65.7682 9.42C66.4082 10 66.7282 10.73 66.7282 11.61C66.7282 12.47 66.4082 13.19 65.7682 13.77C65.1482 14.33 64.3282 14.61 63.3082 14.61ZM66.2182 16.17V33H60.3382V16.17H66.2182ZM76.1367 27.45L79.2867 16.17H85.5567L79.7667 33H72.4467L66.6567 16.17H72.9267L76.1367 27.45Z" fill="white"/>
</svg>
