<svg width="1200" height="5500" viewBox="0 0 1200 5500" fill="none" xmlns="http://www.w3.org/2000/svg">
<g clip-path="url(#clip0_92_75)">
<g filter="url(#filter0_f_92_75)">
<path d="M640.5 1249C841.256 1249 1004 1084.24 1004 881C1004 677.759 841.256 513 640.5 513C439.745 513 277 677.759 277 881C277 1084.24 439.745 1249 640.5 1249Z" fill="#004643"/>
<path d="M417 847C585.999 847 723 711.342 723 544C723 376.658 585.999 241 417 241C248.001 241 111 376.658 111 544C111 711.342 248.001 847 417 847Z" fill="#F9BC60"/>
<path d="M1024 3171C1412.81 3171 1728 2833.87 1728 2418C1728 2002.13 1412.81 1665 1024 1665C635.192 1665 320 2002.13 320 2418C320 2833.87 635.192 3171 1024 3171Z" fill="url(#paint0_linear_92_75)"/>
<path d="M1023 4617C1247.23 4617 1429 4434.11 1429 4208.5C1429 3982.89 1247.23 3800 1023 3800C798.772 3800 617 3982.89 617 4208.5C617 4434.11 798.772 4617 1023 4617Z" fill="url(#paint1_linear_92_75)"/>
<path d="M0 5136C292.159 5136 529 4913.04 529 4638C529 4362.96 292.159 4140 0 4140C-292.159 4140 -529 4362.96 -529 4638C-529 4913.04 -292.159 5136 0 5136Z" fill="url(#paint2_linear_92_75)"/>
<path d="M1023.74 5726C1327.78 5726 1574.25 5516.47 1574.25 5258C1574.25 4999.53 1327.78 4790 1023.74 4790C719.708 4790 473.239 4999.53 473.239 5258C473.239 5516.47 719.708 5726 1023.74 5726Z" fill="url(#paint3_linear_92_75)"/>
<path d="M849.899 771.82C1068.59 771.82 1245.88 599.042 1245.88 385.91C1245.88 172.778 1068.59 0 849.899 0C631.208 0 453.923 172.778 453.923 385.91C453.923 599.042 631.208 771.82 849.899 771.82Z" fill="#CC2323"/>
<path d="M-122.5 3878C276.526 3878 600 3551.17 600 3148C600 2744.83 276.526 2418 -122.5 2418C-521.526 2418 -845 2744.83 -845 3148C-845 3551.17 -521.526 3878 -122.5 3878Z" fill="url(#paint4_linear_92_75)"/>
</g>
</g>
<defs>
<filter id="filter0_f_92_75" x="-957" y="-112" width="2797" height="5950" filterUnits="userSpaceOnUse" color-interpolation-filters="sRGB">
<feFlood flood-opacity="0" result="BackgroundImageFix"/>
<feBlend mode="normal" in="SourceGraphic" in2="BackgroundImageFix" result="shape"/>
<feGaussianBlur stdDeviation="56" result="effect1_foregroundBlur_92_75"/>
</filter>
<linearGradient id="paint0_linear_92_75" x1="1130.67" y1="2845.95" x2="740.378" y2="1900.38" gradientUnits="userSpaceOnUse">
<stop stop-color="#F9BC60"/>
<stop offset="0.411507" stop-color="#F9BC60" stop-opacity="0.794247"/>
<stop offset="0.745363" stop-color="#F9BC60" stop-opacity="0.627319"/>
<stop offset="1" stop-color="#F9BC60" stop-opacity="0.5"/>
</linearGradient>
<linearGradient id="paint1_linear_92_75" x1="1219" y1="4429.64" x2="870.668" y2="3806.9" gradientUnits="userSpaceOnUse">
<stop stop-color="#F9BC60"/>
<stop offset="0.527616" stop-color="#F9BC60" stop-opacity="0.552799"/>
<stop offset="0.853452" stop-color="#F9BC60" stop-opacity="0"/>
</linearGradient>
<linearGradient id="paint2_linear_92_75" x1="-84.9231" y1="4713.45" x2="494.665" y2="4376.51" gradientUnits="userSpaceOnUse">
<stop offset="0.189011" stop-color="#004643"/>
<stop offset="0.553478" stop-color="#004643" stop-opacity="0.660779"/>
<stop offset="0.771251" stop-color="#004643" stop-opacity="0.432533"/>
<stop offset="1" stop-color="#004643" stop-opacity="0"/>
</linearGradient>
<linearGradient id="paint3_linear_92_75" x1="1117.85" y1="5318.6" x2="675.623" y2="4748.22" gradientUnits="userSpaceOnUse">
<stop offset="0.0911107" stop-color="#CC2323"/>
<stop offset="0.391421" stop-color="#CC2323" stop-opacity="0.650722"/>
<stop offset="0.706288" stop-color="#CC2323" stop-opacity="0.390047"/>
<stop offset="1" stop-color="#CC2323" stop-opacity="0"/>
</linearGradient>
<linearGradient id="paint4_linear_92_75" x1="-122.5" y1="2418" x2="1045.59" y2="4255.36" gradientUnits="userSpaceOnUse">
<stop stop-color="#CC2323"/>
<stop offset="0.820373" stop-color="#CC2323" stop-opacity="0.5"/>
</linearGradient>
<clipPath id="clip0_92_75">
<rect width="1200" height="5513" fill="white"/>
</clipPath>
</defs>
</svg>
