<svg width="1200" height="831" viewBox="0 0 1200 831" fill="none" xmlns="http://www.w3.org/2000/svg">
<g clip-path="url(#clip0_71_95)">
<g filter="url(#filter0_f_71_95)">
<path d="M409 762C532.16 762 632 660.592 632 535.5C632 410.408 532.16 309 409 309C285.841 309 186 410.408 186 535.5C186 660.592 285.841 762 409 762Z" fill="#004643"/>
<path d="M863.5 831C978.651 831 1072 741.233 1072 630.5C1072 519.767 978.651 430 863.5 430C748.349 430 655 519.767 655 630.5C655 741.233 748.349 831 863.5 831Z" fill="#F9BC60"/>
<path d="M854.5 554C1024.33 554 1162 421.252 1162 257.5C1162 93.7476 1024.33 -39 854.5 -39C684.672 -39 547 93.7476 547 257.5C547 421.252 684.672 554 854.5 554Z" fill="#CC2323"/>
</g>
</g>
<defs>
<filter id="filter0_f_71_95" x="74" y="-151" width="1200" height="1094" filterUnits="userSpaceOnUse" color-interpolation-filters="sRGB">
<feFlood flood-opacity="0" result="BackgroundImageFix"/>
<feBlend mode="normal" in="SourceGraphic" in2="BackgroundImageFix" result="shape"/>
<feGaussianBlur stdDeviation="56" result="effect1_foregroundBlur_71_95"/>
</filter>
<clipPath id="clip0_71_95">
<rect width="1200" height="831" fill="white"/>
</clipPath>
</defs>
</svg>
