<svg width="1728" height="5500" viewBox="0 0 1728 5500" fill="none" xmlns="http://www.w3.org/2000/svg">
<g clip-path="url(#clip0_83_79)">
<rect width="1728" height="5500" fill="white"/>
<g clip-path="url(#clip1_83_79)">
<g filter="url(#filter0_f_83_79)">
<path d="M995 1355C1213.15 1355 1390 1183.3 1390 971.5C1390 759.699 1213.15 588 995 588C776.848 588 600 759.699 600 971.5C600 1183.3 776.848 1355 995 1355Z" fill="#004643"/>
<path d="M599.5 1014C800.255 1014 963 852.151 963 652.5C963 452.849 800.255 291 599.5 291C398.745 291 236 452.849 236 652.5C236 852.151 398.745 1014 599.5 1014Z" fill="#F9BC60"/>
<path d="M1390 3062C1740.7 3062 2025 2770.31 2025 2410.5C2025 2050.69 1740.7 1759 1390 1759C1039.3 1759 755 2050.69 755 2410.5C755 2770.31 1039.3 3062 1390 3062Z" fill="url(#paint0_linear_83_79)"/>
<path d="M173 5999C593.841 5999 935 5674.85 935 5275C935 4875.15 593.841 4551 173 4551C-247.841 4551 -589 4875.15 -589 5275C-589 5674.85 -247.841 5999 173 5999Z" fill="url(#paint1_linear_83_79)"/>
<path d="M1728 5123C2165.96 5123 2521 4783.41 2521 4364.5C2521 3945.59 2165.96 3606 1728 3606C1290.04 3606 935 3945.59 935 4364.5C935 4783.41 1290.04 5123 1728 5123Z" fill="url(#paint2_linear_83_79)"/>
<path d="M1179 787C1402.68 787 1584 609.257 1584 390C1584 170.743 1402.68 -7 1179 -7C955.325 -7 774 170.743 774 390C774 609.257 955.325 787 1179 787Z" fill="#CC2323"/>
<path d="M163 4143C578.318 4143 915 3831.17 915 3446.5C915 3061.83 578.318 2750 163 2750C-252.318 2750 -589 3061.83 -589 3446.5C-589 3831.17 -252.318 4143 163 4143Z" fill="url(#paint3_linear_83_79)"/>
</g>
</g>
</g>
<defs>
<filter id="filter0_f_83_79" x="-701" y="-119" width="3334" height="6230" filterUnits="userSpaceOnUse" color-interpolation-filters="sRGB">
<feFlood flood-opacity="0" result="BackgroundImageFix"/>
<feBlend mode="normal" in="SourceGraphic" in2="BackgroundImageFix" result="shape"/>
<feGaussianBlur stdDeviation="56" result="effect1_foregroundBlur_83_79"/>
</filter>
<linearGradient id="paint0_linear_83_79" x1="1486.21" y1="2780.77" x2="1158.49" y2="1953.03" gradientUnits="userSpaceOnUse">
<stop stop-color="#F9BC60"/>
<stop offset="0.411507" stop-color="#F9BC60" stop-opacity="0.794247"/>
<stop offset="0.745363" stop-color="#F9BC60" stop-opacity="0.627319"/>
<stop offset="1" stop-color="#F9BC60" stop-opacity="0.5"/>
</linearGradient>
<linearGradient id="paint1_linear_83_79" x1="50.6722" y1="5384.7" x2="889.418" y2="4901.58" gradientUnits="userSpaceOnUse">
<stop offset="0.189011" stop-color="#004643"/>
<stop offset="0.553478" stop-color="#004643" stop-opacity="0.660779"/>
<stop offset="0.771251" stop-color="#004643" stop-opacity="0.432533"/>
<stop offset="1" stop-color="#004643" stop-opacity="0"/>
</linearGradient>
<linearGradient id="paint2_linear_83_79" x1="1863.56" y1="4462.72" x2="1130.35" y2="3622.2" gradientUnits="userSpaceOnUse">
<stop offset="0.0911107" stop-color="#CC2323"/>
<stop offset="0.391421" stop-color="#CC2323" stop-opacity="0.650722"/>
<stop offset="0.706288" stop-color="#CC2323" stop-opacity="0.390047"/>
<stop offset="1" stop-color="#CC2323" stop-opacity="0"/>
</linearGradient>
<linearGradient id="paint3_linear_83_79" x1="163" y1="2750" x2="1233.85" y2="4587.51" gradientUnits="userSpaceOnUse">
<stop stop-color="#CC2323"/>
<stop offset="0.820373" stop-color="#CC2323" stop-opacity="0.5"/>
</linearGradient>
<clipPath id="clip0_83_79">
<rect width="1728" height="5500" fill="white"/>
</clipPath>
<clipPath id="clip1_83_79">
<rect width="1728" height="5513" fill="white" transform="translate(0 -7)"/>
</clipPath>
</defs>
</svg>
