<svg width="992" height="1133" viewBox="0 0 992 1133" fill="none" xmlns="http://www.w3.org/2000/svg">
<g clip-path="url(#clip0_71_30)">
<g filter="url(#filter0_f_71_30)">
<path d="M796 924C975.493 924 1121 786.775 1121 617.5C1121 448.225 975.493 311 796 311C616.507 311 471 448.225 471 617.5C471 786.775 616.507 924 796 924Z" fill="#004643"/>
<path d="M398 836C617.809 836 796 673.032 796 472C796 270.968 617.809 108 398 108C178.191 108 0 270.968 0 472C0 673.032 178.191 836 398 836Z" fill="#F9BC60"/>
<path d="M659.5 660C858.046 660 1019 503.971 1019 311.5C1019 119.029 858.046 -37 659.5 -37C460.954 -37 300 119.029 300 311.5C300 503.971 460.954 660 659.5 660Z" fill="#CC2323"/>
</g>
</g>
<defs>
<filter id="filter0_f_71_30" x="-112" y="-149" width="1345" height="1185" filterUnits="userSpaceOnUse" color-interpolation-filters="sRGB">
<feFlood flood-opacity="0" result="BackgroundImageFix"/>
<feBlend mode="normal" in="SourceGraphic" in2="BackgroundImageFix" result="shape"/>
<feGaussianBlur stdDeviation="56" result="effect1_foregroundBlur_71_30"/>
</filter>
<clipPath id="clip0_71_30">
<rect width="1237" height="1133" fill="white"/>
</clipPath>
</defs>
</svg>
