<svg width="992" height="5500" viewBox="0 0 992 5500" fill="none" xmlns="http://www.w3.org/2000/svg">
<g clip-path="url(#clip0_92_64)">
<g filter="url(#filter0_f_92_64)">
<path d="M548 1185C756.211 1185 925 1013.08 925 801C925 588.923 756.211 417 548 417C339.789 417 171 588.923 171 801C171 1013.08 339.789 1185 548 1185Z" fill="#004643"/>
<path d="M334.5 759C509.298 759 651 616.627 651 441C651 265.373 509.298 123 334.5 123C159.702 123 18 265.373 18 441C18 616.627 159.702 759 334.5 759Z" fill="#F9BC60"/>
<path d="M1030 2879C1397.27 2879 1695 2585.52 1695 2223.5C1695 1861.48 1397.27 1568 1030 1568C662.731 1568 365 1861.48 365 2223.5C365 2585.52 662.731 2879 1030 2879Z" fill="url(#paint0_linear_92_64)"/>
<path d="M845.5 4604C1031.34 4604 1182 4449.99 1182 4260C1182 4070.01 1031.34 3916 845.5 3916C659.656 3916 509 4070.01 509 4260C509 4449.99 659.656 4604 845.5 4604Z" fill="url(#paint1_linear_92_64)"/>
<path d="M-2.00003 5123C239.901 5123 436 4929.81 436 4691.5C436 4453.19 239.901 4260 -2.00003 4260C-243.901 4260 -440 4453.19 -440 4691.5C-440 4929.81 -243.901 5123 -2.00003 5123Z" fill="url(#paint2_linear_92_64)"/>
<path d="M846 5713C1097.84 5713 1302 5503.47 1302 5245C1302 4986.53 1097.84 4777 846 4777C594.158 4777 390 4986.53 390 5245C390 5503.47 594.158 5713 846 5713Z" fill="url(#paint3_linear_92_64)"/>
<path d="M702 758.82C883.149 758.82 1030 586.042 1030 372.91C1030 159.778 883.149 -13 702 -13C520.851 -13 374 159.778 374 372.91C374 586.042 520.851 758.82 702 758.82Z" fill="#CC2323"/>
<path d="M48.5001 4136.45C462.99 4136.45 799 3766.49 799 3310.11C799 2853.74 462.99 2483.78 48.5001 2483.78C-365.99 2483.78 -702 2853.74 -702 3310.11C-702 3766.49 -365.99 4136.45 48.5001 4136.45Z" fill="url(#paint4_linear_92_64)"/>
</g>
</g>
<defs>
<filter id="filter0_f_92_64" x="-814" y="-125" width="2621" height="5950" filterUnits="userSpaceOnUse" color-interpolation-filters="sRGB">
<feFlood flood-opacity="0" result="BackgroundImageFix"/>
<feBlend mode="normal" in="SourceGraphic" in2="BackgroundImageFix" result="shape"/>
<feGaussianBlur stdDeviation="56" result="effect1_foregroundBlur_92_64"/>
</filter>
<linearGradient id="paint0_linear_92_64" x1="1130.76" y1="2596.04" x2="810.628" y2="1754.44" gradientUnits="userSpaceOnUse">
<stop stop-color="#F9BC60"/>
<stop offset="0.411507" stop-color="#F9BC60" stop-opacity="0.794247"/>
<stop offset="0.745363" stop-color="#F9BC60" stop-opacity="0.627319"/>
<stop offset="1" stop-color="#F9BC60" stop-opacity="0.5"/>
</linearGradient>
<linearGradient id="paint1_linear_92_64" x1="1007.95" y1="4446.23" x2="712.191" y2="3925.82" gradientUnits="userSpaceOnUse">
<stop stop-color="#F9BC60"/>
<stop offset="0.527616" stop-color="#F9BC60" stop-opacity="0.552799"/>
<stop offset="0.853452" stop-color="#F9BC60" stop-opacity="0"/>
</linearGradient>
<linearGradient id="paint2_linear_92_64" x1="-72.3144" y1="4756.88" x2="418.337" y2="4484.31" gradientUnits="userSpaceOnUse">
<stop offset="0.189011" stop-color="#004643"/>
<stop offset="0.553478" stop-color="#004643" stop-opacity="0.660779"/>
<stop offset="0.771251" stop-color="#004643" stop-opacity="0.432533"/>
<stop offset="1" stop-color="#004643" stop-opacity="0"/>
</linearGradient>
<linearGradient id="paint3_linear_92_64" x1="923.954" y1="5305.6" x2="468.326" y2="4818.82" gradientUnits="userSpaceOnUse">
<stop offset="0.0911107" stop-color="#CC2323"/>
<stop offset="0.391421" stop-color="#CC2323" stop-opacity="0.650722"/>
<stop offset="0.706288" stop-color="#CC2323" stop-opacity="0.390047"/>
<stop offset="1" stop-color="#CC2323" stop-opacity="0"/>
</linearGradient>
<linearGradient id="paint4_linear_92_64" x1="48.5" y1="2483.78" x2="1415.61" y2="4457.1" gradientUnits="userSpaceOnUse">
<stop stop-color="#CC2323"/>
<stop offset="0.820373" stop-color="#CC2323" stop-opacity="0.5"/>
</linearGradient>
<clipPath id="clip0_92_64">
<rect width="994" height="5513" fill="white" transform="translate(-2 -13)"/>
</clipPath>
</defs>
</svg>
