<svg width="198" height="198" viewBox="0 0 198 198" fill="none" xmlns="http://www.w3.org/2000/svg">
<path d="M11.2255 44.7383C11.2255 38.9383 12.3922 33.8716 14.7255 29.5383C17.1255 25.205 20.4255 21.8716 24.6255 19.5383C28.8922 17.205 33.7589 16.0383 39.2255 16.0383C46.2255 16.0383 52.0589 17.8716 56.7255 21.5383C61.4589 25.205 64.5589 30.3716 66.0255 37.0383H47.8255C46.2922 32.7716 43.3255 30.6383 38.9255 30.6383C35.7922 30.6383 33.2922 31.8716 31.4255 34.3383C29.5589 36.7383 28.6255 40.205 28.6255 44.7383C28.6255 49.2716 29.5589 52.7716 31.4255 55.2383C33.2922 57.6383 35.7922 58.8383 38.9255 58.8383C43.3255 58.8383 46.2922 56.705 47.8255 52.4383H66.0255C64.5589 58.9716 61.4589 64.105 56.7255 67.8383C51.9922 71.5716 46.1589 73.4383 39.2255 73.4383C33.7589 73.4383 28.8922 72.2716 24.6255 69.9383C20.4255 67.605 17.1255 64.2716 14.7255 59.9383C12.3922 55.605 11.2255 50.5383 11.2255 44.7383ZM152.226 156.638L164.326 116.838H182.526L162.726 172.638H141.626L121.826 116.838H140.126L152.226 156.638Z" fill="#004643"/>
<path d="M92.2724 26.1383C94.2724 23.0716 96.7724 20.6716 99.7724 18.9383C102.772 17.1383 106.106 16.2383 109.772 16.2383V34.3383H105.072C100.806 34.3383 97.6057 35.2716 95.4724 37.1383C93.3391 38.9383 92.2724 42.1383 92.2724 46.7383V72.6383H75.1724V16.8383H92.2724V26.1383ZM45.7255 158.138V172.638H37.0255C30.8255 172.638 25.9922 171.138 22.5255 168.138C19.0589 165.072 17.3255 160.105 17.3255 153.238V131.038H10.5255V116.838H17.3255V103.238H34.4255V116.838H45.6255V131.038H34.4255V153.438C34.4255 155.105 34.8255 156.305 35.6255 157.038C36.4255 157.772 37.7589 158.138 39.6255 158.138H45.7255Z" fill="#CC2323"/>
<path d="M114.546 44.6383C114.546 38.905 115.613 33.8716 117.746 29.5383C119.946 25.205 122.913 21.8716 126.646 19.5383C130.379 17.205 134.546 16.0383 139.146 16.0383C143.079 16.0383 146.513 16.8383 149.446 18.4383C152.446 20.0383 154.746 22.1383 156.346 24.7383V16.8383H173.446V72.6383H156.346V64.7383C154.679 67.3383 152.346 69.4383 149.346 71.0383C146.413 72.6383 142.979 73.4383 139.046 73.4383C134.513 73.4383 130.379 72.2716 126.646 69.9383C122.913 67.5383 119.946 64.1716 117.746 59.8383C115.613 55.4383 114.546 50.3716 114.546 44.6383ZM156.346 44.7383C156.346 40.4716 155.146 37.105 152.746 34.6383C150.413 32.1716 147.546 30.9383 144.146 30.9383C140.746 30.9383 137.846 32.1716 135.446 34.6383C133.113 37.0383 131.946 40.3716 131.946 44.6383C131.946 48.905 133.113 52.305 135.446 54.8383C137.846 57.305 140.746 58.5383 144.146 58.5383C147.546 58.5383 150.413 57.305 152.746 54.8383C155.146 52.3716 156.346 49.005 156.346 44.7383ZM85.0419 111.038C82.0419 111.038 79.5753 110.172 77.6419 108.438C75.7753 106.638 74.8419 104.438 74.8419 101.838C74.8419 99.1716 75.7753 96.9716 77.6419 95.2383C79.5753 93.4383 82.0419 92.5383 85.0419 92.5383C87.9753 92.5383 90.3753 93.4383 92.2419 95.2383C94.1753 96.9716 95.1419 99.1716 95.1419 101.838C95.1419 104.438 94.1753 106.638 92.2419 108.438C90.3753 110.172 87.9753 111.038 85.0419 111.038ZM93.5419 116.838V172.638H76.4419V116.838H93.5419Z" fill="#F9BC60"/>
<rect x="1" y="1" width="196" height="196" rx="9" stroke="url(#paint0_linear_92_25)" stroke-width="2"/>
<defs>
<linearGradient id="paint0_linear_92_25" x1="99" y1="0" x2="99" y2="198" gradientUnits="userSpaceOnUse">
<stop offset="0.127739" stop-color="#F9BC60"/>
<stop offset="0.508825" stop-color="#004643" stop-opacity="0.5"/>
<stop offset="0.862691" stop-color="#CC2323"/>
</linearGradient>
</defs>
</svg>
