<svg width="93" height="26" viewBox="0 0 93 26" fill="none" xmlns="http://www.w3.org/2000/svg">
<path d="M11.05 25.45C7.48333 25.45 4.75 24.3167 2.85 22.05C0.983334 19.7833 0.0500001 16.8833 0.0500001 13.35C0.0500001 9.81667 1 6.91667 2.9 4.65C4.8 2.35 7.55 1.2 11.15 1.2C13.45 1.2 15.3167 1.65 16.75 2.55C18.2167 3.41667 18.95 4.56667 18.95 6C18.95 7.4 18.3667 8.5 17.2 9.3C16.0333 10.1 14.5667 10.5 12.8 10.5C13.8 9.43333 14.3 7.98333 14.3 6.15C14.3 5.08333 13.9667 4.2 13.3 3.5C12.6667 2.76667 11.8333 2.4 10.8 2.4C8.9 2.4 7.5 3.48333 6.6 5.65C5.73333 7.81667 5.3 10.3833 5.3 13.35C5.3 15.25 5.56667 16.9833 6.1 18.55C6.66667 20.1167 7.46667 21.3667 8.5 22.3C9.56667 23.2 10.7833 23.65 12.15 23.65C13.7167 23.65 15.0167 23.3333 16.05 22.7C17.1167 22.0333 18.0833 21.1167 18.95 19.95L19.55 20.4C18.65 21.9 17.4833 23.1167 16.05 24.05C14.65 24.9833 12.9833 25.45 11.05 25.45ZM31.802 8.4C32.8686 8.4 33.7353 8.71667 34.402 9.35C35.0686 9.95 35.402 10.7333 35.402 11.7C35.402 12.6 35.1353 13.3333 34.602 13.9C34.0686 14.4333 33.3686 14.7 32.502 14.7C31.8353 14.7 31.2186 14.5667 30.652 14.3C31.252 13.8 31.552 13.05 31.552 12.05C31.552 11.5833 31.452 11.2167 31.252 10.95C31.052 10.6833 30.7853 10.55 30.452 10.55C29.652 10.55 28.9853 11.3667 28.452 13C27.9186 14.6 27.652 16.6 27.652 19C27.652 20.2333 27.7186 21.2167 27.852 21.95C28.0186 22.6833 28.2853 23.3667 28.652 24L29.052 24.5L28.652 25H21.402L21.102 24.15L21.802 24C22.3353 23.8667 22.6853 23.6667 22.852 23.4C23.0186 23.1 23.102 22.5333 23.102 21.7V11.95C23.102 11.3167 22.8853 11 22.452 11H20.902L20.702 10.45C21.3353 9.88333 22.1186 9.41667 23.052 9.05C24.0186 8.68333 24.9686 8.5 25.902 8.5C26.3353 8.5 26.6853 8.6 26.952 8.8C27.2186 9 27.352 9.26667 27.352 9.6V13.25H27.502C28.202 10.0167 29.6353 8.4 31.802 8.4ZM42.5211 13.95C41.8211 14.35 40.9878 14.55 40.0211 14.55C39.3211 14.55 38.7711 14.35 38.3711 13.95C37.9711 13.5167 37.7711 12.9167 37.7711 12.15C37.7711 11.0167 38.3211 10.1167 39.4211 9.45C40.5544 8.75 42.0211 8.4 43.8211 8.4C45.9544 8.4 47.6211 8.86667 48.8211 9.8C50.0544 10.7333 50.6711 12 50.6711 13.6V22.25C50.6711 23.1833 51.0044 23.65 51.6711 23.65C52.3044 23.65 52.9211 23.4 53.5211 22.9L53.9211 23.4C52.6878 24.7667 51.2211 25.45 49.5211 25.45C48.5211 25.45 47.7544 25.2 47.2211 24.7C46.7211 24.2 46.4211 23.4167 46.3211 22.35H46.1211C45.5878 23.3167 44.8711 24.0833 43.9711 24.65C43.1044 25.1833 42.1044 25.45 40.9711 25.45C39.7044 25.45 38.6878 25.0667 37.9211 24.3C37.1544 23.5 36.7711 22.4667 36.7711 21.2C36.7711 19.7667 37.4544 18.6333 38.8211 17.8C40.1878 16.9667 42.0378 16.55 44.3711 16.55C44.8044 16.55 45.4211 16.5833 46.2211 16.65V14.15C46.2211 12.5167 46.0211 11.35 45.6211 10.65C45.2211 9.91667 44.5711 9.55 43.6711 9.55C43.0378 9.55 42.5378 9.75 42.1711 10.15C41.8044 10.55 41.6211 11.0667 41.6211 11.7C41.6211 12.7 41.9211 13.45 42.5211 13.95ZM43.2711 22.95C45.2378 22.95 46.2211 21.1667 46.2211 17.6C44.5544 17.6 43.3044 17.8833 42.4711 18.45C41.6378 18.9833 41.2211 19.75 41.2211 20.75C41.2211 21.4167 41.4044 21.95 41.7711 22.35C42.1378 22.75 42.6378 22.95 43.2711 22.95ZM60.5828 25.45C59.2161 25.45 58.2328 25.15 57.6328 24.55C57.0328 23.9167 56.7328 22.9 56.7328 21.5V10.9H54.2328C54.2328 10.3333 54.2661 9.96667 54.3328 9.8C54.3995 9.63333 54.5995 9.5 54.9328 9.4C56.0328 9.1 56.8995 8.63333 57.5328 8C58.1661 7.36667 58.6828 6.45 59.0828 5.25C59.1828 4.88333 59.3495 4.66667 59.5828 4.6C59.8161 4.5 60.3828 4.45 61.2828 4.45V8.95H65.3828C65.3828 9.38333 65.3161 9.78333 65.1828 10.15C65.0495 10.4833 64.8661 10.7333 64.6328 10.9H61.2828V22.15C61.2828 23.15 61.6995 23.65 62.5328 23.65C62.8995 23.65 63.2995 23.5333 63.7328 23.3C64.1995 23.0667 64.6161 22.75 64.9828 22.35L65.3828 22.85C63.9495 24.5833 62.3495 25.45 60.5828 25.45ZM73.198 22.15C73.198 23.15 73.5147 23.65 74.148 23.65C74.7814 23.65 75.398 23.4 75.998 22.9L76.398 23.4C75.1647 24.7667 73.7147 25.45 72.048 25.45C70.848 25.45 69.9814 25.15 69.448 24.55C68.9147 23.9167 68.648 22.9 68.648 21.5V11.6C68.648 11.1333 68.4314 10.9 67.998 10.9H66.448L66.298 10.35C66.9647 9.78333 67.798 9.31667 68.798 8.95C69.798 8.58333 70.798 8.4 71.798 8.4C72.198 8.4 72.5314 8.5 72.798 8.7C73.0647 8.9 73.198 9.16667 73.198 9.5V22.15ZM68.148 3.6C68.148 3 68.4814 2.33333 69.148 1.6C69.8147 0.866666 70.4314 0.5 70.998 0.5C71.598 0.5 72.2314 0.866666 72.898 1.6C73.598 2.33333 73.948 3 73.948 3.6C73.948 4.23333 73.598 4.91667 72.898 5.65C72.2314 6.35 71.598 6.7 70.998 6.7C70.4314 6.7 69.8147 6.35 69.148 5.65C68.4814 4.91667 68.148 4.23333 68.148 3.6ZM86.5938 23.85C87.6604 23.85 88.4938 23.1667 89.0938 21.8C89.7271 20.4 90.0438 18.65 90.0438 16.55C90.0438 13.7167 89.4438 11.4833 88.2438 9.85L87.7938 9.3L88.1938 8.9L92.3938 8.4C92.4938 9.83333 92.5438 10.9833 92.5438 11.85C92.5438 16.1167 91.8938 19.45 90.5938 21.85C89.2938 24.25 87.5438 25.45 85.3438 25.45C83.6104 25.45 82.2938 24.9333 81.3938 23.9C80.5271 22.8667 79.9104 21.1667 79.5438 18.8L78.4938 11.6C78.4604 11.3333 78.3938 11.15 78.2938 11.05C78.1938 10.95 78.0438 10.9 77.8438 10.9H76.4938L76.3438 10.35C77.0104 9.75 77.8104 9.28333 78.7438 8.95C79.6771 8.58333 80.5938 8.4 81.4938 8.4C81.9938 8.4 82.3438 8.55 82.5438 8.85C82.7771 9.15 82.9604 9.75 83.0938 10.65L84.3938 19.6C84.6271 21.2333 84.8938 22.35 85.1938 22.95C85.4938 23.55 85.9604 23.85 86.5938 23.85Z" fill="black"/>
</svg>
